<svg width="131" height="27" viewBox="0 0 131 27" fill="none" xmlns="http://www.w3.org/2000/svg">
<path d="M17.252 1.592C17.468 1.88 17.6 2.216 17.648 2.6C17.648 2.744 17.636 2.888 17.612 3.032C17.612 3.152 17.6 3.272 17.576 3.392C17.552 3.656 17.396 3.908 17.108 4.148C16.94 4.268 16.724 4.388 16.46 4.508C16.316 4.556 16.16 4.592 15.992 4.616C15.848 4.616 15.68 4.628 15.488 4.652C15.344 4.7 15.188 4.724 15.02 4.724C14.852 4.724 14.684 4.724 14.516 4.724H12.896L5.372 4.76V4.868L5.336 10.736C5.528 10.736 5.732 10.736 5.948 10.736C6.188 10.736 6.476 10.724 6.812 10.7C7.772 10.7 8.624 10.7 9.368 10.7C10.136 10.7 10.976 10.712 11.888 10.736H12.104C12.368 10.736 12.632 10.748 12.896 10.772C13.184 10.772 13.472 10.772 13.76 10.772C14.024 10.796 14.288 10.832 14.552 10.88C14.816 10.904 15.08 10.964 15.344 11.06C15.776 11.204 16.088 11.432 16.28 11.744C16.544 12.056 16.676 12.38 16.676 12.716C16.676 12.86 16.676 13.004 16.676 13.148C16.676 13.268 16.652 13.4 16.604 13.544C16.58 13.736 16.424 13.976 16.136 14.264C15.944 14.432 15.716 14.54 15.452 14.588C15.332 14.636 15.188 14.684 15.02 14.732C14.876 14.756 14.72 14.78 14.552 14.804C14.384 14.828 14.216 14.852 14.048 14.876C13.904 14.876 13.736 14.876 13.544 14.876H11.888L5.264 14.912L5.156 23.264V23.552C5.156 23.672 5.144 23.792 5.12 23.912C5.12 24.008 5.108 24.116 5.084 24.236C5.036 24.356 4.988 24.488 4.94 24.632C4.916 24.752 4.88 24.872 4.832 24.992C4.664 25.328 4.508 25.556 4.364 25.676C4.1 25.868 3.776 26 3.392 26.072C2.744 26.216 2.132 26.144 1.556 25.856C1.436 25.784 1.316 25.7 1.196 25.604C1.1 25.484 1.016 25.34 0.944 25.172C0.896 25.076 0.872 25.004 0.872 24.956L0.764 24.74C0.692 24.62 0.644 24.5 0.62 24.38C0.596 24.236 0.572 24.104 0.548 23.984C0.548 23.864 0.536 23.744 0.512 23.624C0.512 23.504 0.5 23.384 0.476 23.264C0.452 23.072 0.452 22.88 0.476 22.688V22.112L0.512 19.304L0.548 14.12C0.572 13.352 0.584 12.572 0.584 11.78C0.584 10.988 0.584 10.172 0.584 9.332C0.56 8.468 0.548 7.7 0.548 7.028C0.572 6.356 0.608 5.624 0.656 4.832V4.652C0.68 4.388 0.692 4.148 0.692 3.932C0.692 3.692 0.716 3.452 0.764 3.212C0.812 2.684 0.932 2.216 1.124 1.808C1.292 1.4 1.532 1.112 1.844 0.943999C2.204 0.727998 2.588 0.619998 2.996 0.619998C3.188 0.619998 3.344 0.631998 3.464 0.655998V0.619998C3.896 0.619998 4.244 0.619998 4.508 0.619998C4.772 0.619998 5.024 0.619998 5.264 0.619998C5.504 0.619998 5.768 0.619998 6.056 0.619998C6.344 0.595999 6.728 0.583999 7.208 0.583999C9.128 0.559999 11.024 0.559999 12.896 0.583999H13.076C13.34 0.607999 13.604 0.619998 13.868 0.619998C14.156 0.619998 14.444 0.631998 14.732 0.655998C14.996 0.655998 15.26 0.691998 15.524 0.763999C15.788 0.811998 16.052 0.883998 16.316 0.979998C16.724 1.1 17.036 1.304 17.252 1.592ZM24.81 23.12C24.786 23.24 24.762 23.36 24.738 23.48C24.738 23.576 24.738 23.684 24.738 23.804L24.522 24.56C24.474 24.656 24.438 24.716 24.414 24.74L24.306 24.956C24.186 25.22 23.97 25.436 23.658 25.604C23.082 25.892 22.47 25.964 21.822 25.82C21.414 25.772 21.09 25.652 20.85 25.46C20.61 25.292 20.442 25.088 20.346 24.848C20.25 24.608 20.178 24.368 20.13 24.128C20.058 23.888 20.022 23.672 20.022 23.48V3.32C20.022 3.152 20.022 3.008 20.022 2.888C20.046 2.744 20.07 2.612 20.094 2.492C20.118 2.324 20.142 2.18 20.166 2.06C20.214 1.94 20.262 1.808 20.31 1.664C20.382 1.424 20.514 1.232 20.706 1.088C20.994 0.871999 21.27 0.751999 21.534 0.727999C21.702 0.679998 21.858 0.655998 22.002 0.655998C22.146 0.631998 22.314 0.619998 22.506 0.619998C22.842 0.619998 23.226 0.715999 23.658 0.907999C23.994 1.1 24.234 1.364 24.378 1.7C24.618 2.18 24.738 2.624 24.738 3.032C24.762 3.272 24.774 3.632 24.774 4.112C24.798 4.592 24.81 4.952 24.81 5.192V5.336C24.858 6.104 24.882 6.848 24.882 7.568C24.882 8.264 24.87 9.032 24.846 9.872C24.846 10.688 24.834 11.48 24.81 12.248C24.81 12.992 24.81 13.736 24.81 14.48V22.04C24.81 22.136 24.81 22.232 24.81 22.328C24.834 22.4 24.846 22.484 24.846 22.58C24.846 22.82 24.834 23 24.81 23.12ZM32.4004 9.728C33.1924 9.344 34.0204 9.068 34.8844 8.9C35.7484 8.732 36.6004 8.696 37.4404 8.792C38.3044 8.888 39.1324 9.116 39.9244 9.476C40.7404 9.836 41.4844 10.34 42.1564 10.988C42.7084 11.54 43.1884 12.212 43.5964 13.004C44.0044 13.772 44.3044 14.528 44.4964 15.272C44.9044 16.592 44.9644 17.924 44.6764 19.268C44.3884 20.612 43.8964 21.86 43.2004 23.012C42.8644 23.54 42.4444 24.02 41.9404 24.452C41.4604 24.86 40.9444 25.196 40.3924 25.46C39.6724 25.796 38.8924 26.024 38.0524 26.144C37.2124 26.288 36.3964 26.324 35.6044 26.252C34.1644 26.18 32.8924 25.82 31.7884 25.172C30.7084 24.524 29.8324 23.696 29.1604 22.688C28.5124 21.68 28.0804 20.54 27.8644 19.268C27.6724 17.972 27.7564 16.652 28.1164 15.308C28.5004 13.868 29.0524 12.704 29.7724 11.816C30.5164 10.904 31.3924 10.208 32.4004 9.728ZM33.4804 14.552C33.1204 14.888 32.8444 15.308 32.6524 15.812C32.4604 16.316 32.3404 16.844 32.2924 17.396C32.2444 17.924 32.2804 18.464 32.4004 19.016C32.5444 19.544 32.7604 20.024 33.0484 20.456C33.2884 20.816 33.7204 21.116 34.3444 21.356C34.9684 21.596 35.6164 21.74 36.2884 21.788C37.0564 21.836 37.7284 21.632 38.3044 21.176C38.8804 20.696 39.3124 20.108 39.6004 19.412C39.9124 18.716 40.0564 17.96 40.0324 17.144C40.0084 16.328 39.7924 15.584 39.3844 14.912C39.0964 14.432 38.6884 14.084 38.1604 13.868C37.6564 13.628 37.1164 13.508 36.5404 13.508C35.9884 13.484 35.4364 13.568 34.8844 13.76C34.3324 13.928 33.8644 14.192 33.4804 14.552ZM47.7612 13.256C47.7612 12.968 47.7612 12.644 47.7612 12.284C47.7612 11.9 47.7732 11.516 47.7972 11.132C47.8212 10.724 47.8572 10.34 47.9052 9.98C47.9772 9.596 48.0732 9.26 48.1932 8.972C48.3852 8.54 48.6852 8.252 49.0932 8.108C49.5012 7.94 49.9452 7.868 50.4252 7.892C50.9292 7.892 51.3252 7.976 51.6132 8.144C51.9012 8.312 52.1172 8.54 52.2612 8.828C52.4052 9.092 52.4892 9.404 52.5132 9.764C52.5612 10.1 52.5852 10.46 52.5852 10.844C52.8012 10.46 53.0892 10.148 53.4492 9.908C53.8332 9.668 54.2172 9.476 54.6012 9.332C54.9852 9.188 55.3332 9.092 55.6452 9.044C55.9572 8.972 56.1372 8.936 56.1852 8.936C56.7852 8.888 57.3252 8.876 57.8052 8.9C58.3092 8.924 58.8612 9.032 59.4612 9.224C59.8452 9.368 60.2412 9.572 60.6492 9.836C61.0572 10.076 61.4172 10.364 61.7292 10.7C62.0412 11.036 62.2452 11.408 62.3412 11.816C62.4612 12.2 62.4132 12.608 62.1972 13.04C61.8612 13.64 61.4892 13.94 61.0812 13.94C60.6732 13.916 60.2292 13.844 59.7492 13.724C59.4852 13.676 59.1732 13.568 58.8132 13.4C58.4532 13.232 58.1412 13.124 57.8772 13.076C57.0612 12.956 56.3412 13.016 55.7172 13.256C55.0932 13.496 54.5532 13.784 54.0972 14.12C53.5692 14.528 53.1132 14.996 52.7292 15.524V20.708C52.7292 21.356 52.7172 22.028 52.6932 22.724C52.6932 23.42 52.5972 24.056 52.4052 24.632C52.2372 25.184 51.9372 25.64 51.5052 26C51.0972 26.336 50.4972 26.48 49.7052 26.432C49.2732 26.408 48.8892 26.204 48.5532 25.82C48.2172 25.412 48.0132 25.016 47.9412 24.632C47.8932 24.272 47.8572 23.84 47.8332 23.336C47.8092 22.832 47.7852 22.304 47.7612 21.752C47.7612 21.2 47.7612 20.648 47.7612 20.096C47.7612 19.52 47.7612 18.992 47.7612 18.512V13.256ZM79.5854 10.124C79.7774 10.58 79.7894 11.084 79.6214 11.636C79.4774 12.188 79.2014 12.548 78.7934 12.716C78.5774 12.812 78.2894 12.896 77.9294 12.968C77.5694 13.016 77.1734 13.064 76.7414 13.112C76.3334 13.16 75.9254 13.196 75.5174 13.22C75.1094 13.244 74.7614 13.256 74.4734 13.256C74.4974 13.976 74.5214 14.72 74.5454 15.488C74.5694 16.232 74.5934 16.964 74.6174 17.684C74.6414 18.404 74.6534 19.1 74.6534 19.772C74.6534 20.42 74.6414 21.008 74.6174 21.536C74.6174 21.896 74.6174 22.316 74.6174 22.796C74.6174 23.252 74.5814 23.696 74.5094 24.128C74.4614 24.56 74.3774 24.944 74.2574 25.28C74.1374 25.592 73.9574 25.796 73.7174 25.892C72.9734 26.204 72.2894 26.288 71.6654 26.144C71.0654 26.024 70.6334 25.772 70.3694 25.388C70.1774 25.076 70.0334 24.716 69.9374 24.308C69.8414 23.876 69.7694 23.444 69.7214 23.012C69.6974 22.556 69.6854 22.124 69.6854 21.716C69.7094 21.284 69.7214 20.912 69.7214 20.6C69.7454 19.592 69.7574 18.452 69.7574 17.18C69.7814 15.884 69.7934 14.588 69.7934 13.292H69.2534C68.9654 13.292 68.5934 13.292 68.1374 13.292C67.7054 13.268 67.2614 13.232 66.8054 13.184C66.3734 13.112 65.9654 13.028 65.5814 12.932C65.1974 12.812 64.9214 12.644 64.7534 12.428C64.4894 12.116 64.3214 11.78 64.2494 11.42C64.2014 11.06 64.2254 10.724 64.3214 10.412C64.4414 10.076 64.6214 9.788 64.8614 9.548C65.1014 9.284 65.3774 9.116 65.6894 9.044C66.1214 8.924 66.7334 8.864 67.5254 8.864C68.3174 8.84 69.0614 8.84 69.7574 8.864C69.7334 8.624 69.7214 8.396 69.7214 8.18C69.7214 7.94 69.7094 7.712 69.6854 7.496C69.6614 7.208 69.6494 6.848 69.6494 6.416C69.6494 5.96 69.6734 5.516 69.7214 5.084C69.7934 4.628 69.9014 4.208 70.0454 3.824C70.1894 3.416 70.3934 3.104 70.6574 2.888C71.0174 2.6 71.3774 2.444 71.7374 2.42C72.1214 2.372 72.4694 2.42 72.7814 2.564C73.1174 2.708 73.3934 2.924 73.6094 3.212C73.8494 3.476 74.0174 3.776 74.1134 4.112C74.1854 4.4 74.2454 4.748 74.2934 5.156C74.3414 5.54 74.3654 5.948 74.3654 6.38C74.3894 6.812 74.4014 7.244 74.4014 7.676C74.4014 8.108 74.4014 8.504 74.4014 8.864H74.7614C75.1214 8.864 75.5414 8.852 76.0214 8.828C76.5014 8.804 76.9694 8.816 77.4254 8.864C77.9054 8.912 78.3374 9.032 78.7214 9.224C79.1054 9.392 79.3934 9.692 79.5854 10.124ZM93.6499 21.068C93.9379 20.996 94.2259 20.948 94.5139 20.924C94.8259 20.9 95.1019 20.936 95.3419 21.032C95.6059 21.128 95.8219 21.296 95.9899 21.536C96.1579 21.752 96.2419 22.064 96.2419 22.472C96.2419 22.76 96.1699 23.036 96.0259 23.3C95.8819 23.564 95.7019 23.804 95.4859 24.02C95.2699 24.236 95.0299 24.428 94.7659 24.596C94.5019 24.74 94.2499 24.86 94.0099 24.956C93.3139 25.268 92.5099 25.508 91.5979 25.676C90.7099 25.844 89.7859 25.904 88.8259 25.856C87.5299 25.808 86.2819 25.556 85.0819 25.1C83.9059 24.62 82.9819 23.84 82.3099 22.76C81.6859 21.704 81.3139 20.528 81.1939 19.232C81.0739 17.936 81.1339 16.712 81.3739 15.56C81.6379 14.168 82.0819 13.04 82.7059 12.176C83.3539 11.288 84.1219 10.58 85.0099 10.052C86.0899 9.428 87.3019 9.104 88.6459 9.08C89.9899 9.056 91.2739 9.32 92.4979 9.872C93.3139 10.232 94.0459 10.724 94.6939 11.348C95.3419 11.948 95.8339 12.68 96.1699 13.544C96.2659 13.76 96.3379 14.024 96.3859 14.336C96.4579 14.648 96.5059 14.984 96.5299 15.344C96.5539 15.68 96.5539 16.016 96.5299 16.352C96.5059 16.688 96.4459 16.988 96.3499 17.252C96.2059 17.684 96.0259 18.02 95.8099 18.26C95.5939 18.5 95.3179 18.68 94.9819 18.8C94.6459 18.92 94.2379 19.004 93.7579 19.052C93.3019 19.076 92.7499 19.1 92.1019 19.124C91.5259 19.148 90.9859 19.16 90.4819 19.16C89.9779 19.16 89.4619 19.16 88.9339 19.16C88.4059 19.136 87.8539 19.124 87.2779 19.124C86.7259 19.1 86.1019 19.076 85.4059 19.052C85.3339 19.532 85.3939 19.952 85.5859 20.312C85.8019 20.648 86.0899 20.936 86.4499 21.176C86.8099 21.392 87.2179 21.56 87.6739 21.68C88.1299 21.8 88.5739 21.872 89.0059 21.896C89.8219 21.944 90.6019 21.884 91.3459 21.716C92.0899 21.524 92.8579 21.308 93.6499 21.068ZM92.1019 14.084C91.6459 13.556 91.1659 13.172 90.6619 12.932C90.2779 12.764 89.8699 12.692 89.4379 12.716C89.0299 12.716 88.6339 12.776 88.2499 12.896C87.5539 13.064 86.9659 13.424 86.4859 13.976C86.4379 14.024 86.3539 14.144 86.2339 14.336C86.1139 14.504 85.9939 14.684 85.8739 14.876C85.7779 15.068 85.7059 15.248 85.6579 15.416C85.6099 15.584 85.6339 15.668 85.7299 15.668H92.7859C92.7619 15.332 92.7019 15.056 92.6059 14.84C92.5099 14.6 92.3419 14.348 92.1019 14.084ZM112.832 12.14C113.024 12.476 113.12 12.836 113.12 13.22C113.144 13.604 113.06 13.964 112.868 14.3C112.652 14.732 112.34 15.032 111.932 15.2C111.548 15.344 111.116 15.356 110.636 15.236C110.42 15.188 110.228 15.104 110.06 14.984C109.892 14.864 109.712 14.744 109.52 14.624C109.352 14.48 109.148 14.348 108.908 14.228C108.692 14.108 108.404 14.024 108.044 13.976C107.684 13.928 107.288 13.928 106.856 13.976C106.448 14.024 106.076 14.12 105.74 14.264C105.212 14.528 104.792 14.936 104.48 15.488C104.168 16.016 103.964 16.592 103.868 17.216C103.772 17.816 103.784 18.428 103.904 19.052C104.048 19.676 104.312 20.204 104.696 20.636C104.984 20.972 105.356 21.248 105.812 21.464C106.292 21.68 106.748 21.812 107.18 21.86C107.588 21.908 107.996 21.908 108.404 21.86C108.812 21.788 109.208 21.692 109.592 21.572C109.88 21.452 110.204 21.296 110.564 21.104C110.924 20.888 111.272 20.756 111.608 20.708C112.04 20.708 112.376 20.828 112.616 21.068C112.856 21.284 113.024 21.56 113.12 21.896C113.216 22.208 113.228 22.544 113.156 22.904C113.108 23.264 112.976 23.576 112.76 23.84C112.472 24.2 112.064 24.548 111.536 24.884C111.008 25.196 110.504 25.424 110.024 25.568C109.448 25.76 108.8 25.868 108.08 25.892C107.384 25.916 106.724 25.892 106.1 25.82C105.812 25.772 105.512 25.712 105.2 25.64C104.888 25.568 104.588 25.484 104.3 25.388C103.244 25.004 102.356 24.464 101.636 23.768C100.94 23.048 100.4 22.244 100.016 21.356C99.656 20.468 99.452 19.52 99.404 18.512C99.356 17.504 99.476 16.508 99.764 15.524C100.028 14.588 100.352 13.796 100.736 13.148C101.144 12.5 101.612 11.972 102.14 11.564C102.692 11.132 103.304 10.796 103.976 10.556C104.648 10.292 105.392 10.064 106.208 9.872C107.048 9.704 107.936 9.704 108.872 9.872C109.808 10.04 110.648 10.352 111.392 10.808C111.968 11.12 112.448 11.564 112.832 12.14ZM130.109 18.908C130.133 19.388 130.145 19.892 130.145 20.42C130.145 20.924 130.133 21.392 130.109 21.824C130.085 22.472 130.049 23.072 130.001 23.624C129.953 24.152 129.857 24.608 129.713 24.992C129.569 25.352 129.341 25.628 129.029 25.82C128.741 25.988 128.333 26.036 127.805 25.964C127.253 25.892 126.857 25.628 126.617 25.172C126.377 24.716 126.209 24.2 126.113 23.624C126.041 23.024 126.017 22.424 126.041 21.824C126.065 21.224 126.065 20.756 126.041 20.42C126.017 19.892 125.993 19.292 125.969 18.62C125.969 17.924 125.897 17.276 125.753 16.676C125.633 16.052 125.417 15.524 125.105 15.092C124.793 14.66 124.325 14.432 123.701 14.408C122.909 14.36 122.297 14.42 121.865 14.588C121.457 14.756 121.157 15.008 120.965 15.344C120.773 15.656 120.653 16.04 120.605 16.496C120.581 16.952 120.533 17.444 120.461 17.972L120.425 19.376V22.004C120.425 22.436 120.413 22.892 120.389 23.372C120.389 23.828 120.317 24.248 120.173 24.632C120.029 25.016 119.801 25.34 119.489 25.604C119.201 25.868 118.769 26 118.193 26C117.473 26 116.933 25.772 116.573 25.316C116.237 24.836 116.069 24.248 116.069 23.552V2.852C116.069 2.708 116.069 2.576 116.069 2.456C116.093 2.312 116.117 2.168 116.141 2.024C116.189 1.88 116.225 1.748 116.249 1.628C116.273 1.484 116.309 1.352 116.357 1.232C116.429 0.991999 116.549 0.812 116.717 0.692C116.837 0.572 116.957 0.476 117.077 0.403999C117.197 0.331999 117.329 0.283998 117.473 0.259999C117.593 0.235999 117.725 0.223999 117.869 0.223999C118.013 0.2 118.157 0.188 118.301 0.188C118.661 0.188 119.009 0.296 119.345 0.512C119.489 0.607999 119.621 0.715998 119.741 0.835998C119.861 0.931998 119.957 1.076 120.029 1.268C120.221 1.724 120.317 2.156 120.317 2.564C120.341 2.684 120.353 2.864 120.353 3.104C120.377 3.32 120.389 3.548 120.389 3.788C120.389 4.028 120.389 4.268 120.389 4.508C120.413 4.724 120.425 4.892 120.425 5.012V5.192C120.449 5.96 120.461 6.74 120.461 7.532C120.461 8.324 120.461 9.128 120.461 9.944V10.556C121.469 10.22 122.525 10.064 123.629 10.088C124.733 10.088 125.717 10.304 126.581 10.736C127.469 11.192 128.141 11.708 128.597 12.284C129.077 12.86 129.425 13.496 129.641 14.192C129.857 14.888 129.977 15.632 130.001 16.424C130.049 17.216 130.085 18.044 130.109 18.908Z" fill="white"/>
</svg>
